<?xml version="1.0" encoding="utf-8"?>
<!-- Generator: Adobe Illustrator 18.0.0, SVG Export Plug-In . SVG Version: 6.00 Build 0)  -->
<!DOCTYPE svg PUBLIC "-//W3C//DTD SVG 1.1//EN" "http://www.w3.org/Graphics/SVG/1.1/DTD/svg11.dtd">
<svg version="1.1" id="Calque_1" xmlns="http://www.w3.org/2000/svg" xmlns:xlink="http://www.w3.org/1999/xlink" x="0px" y="0px"
	 viewBox="0 0 600 600" enable-background="new 0 0 600 600" xml:space="preserve">
<g>
	<path fill="#FFFFFF" d="M374.5,488.1l-225.6,60.5c-13,3.5-26.4-4.2-29.9-17.2L14.6,141.7c-3.5-13,4.2-26.4,17.2-29.9l225.6-60.5
		c13-3.5,26.4,4.2,29.9,17.2l104.4,389.7C395.2,471.2,387.5,484.6,374.5,488.1z"/>
	<g>
		<path fill="#FFFFFF" d="M441.6,546.9l-215.9-58.8c-16.2-4.4-25.9-21.2-21.4-37.5L306.8,74.4c4.4-16.2,21.2-25.9,37.5-21.4
			l215.9,58.8c16.2,4.4,25.9,21.2,21.4,37.5L479.1,525.5C474.7,541.8,457.8,551.4,441.6,546.9z M342,61.2
			c-11.7-3.2-23.8,3.7-27,15.4L212.5,452.9c-3.2,11.7,3.7,23.8,15.4,27l215.9,58.8c11.7,3.2,23.8-3.7,27-15.4L573.4,147
			c3.2-11.7-3.7-23.8-15.4-27L342,61.2z"/>
	</g>
</g>
</svg>
